<svg xmlns="http://www.w3.org/2000/svg" width="1em" height="1em" viewBox="0 0 24 24">
  <path fill="currentColor"
    d="M15.25 2h-6.5A6.76 6.76 0 0 0 2 8.75v6.5A6.76 6.76 0 0 0 8.75 22h6.5A6.76 6.76 0 0 0 22 15.25v-6.5A6.76 6.76 0 0 0 15.25 2m1.26 13.44a2 2 0 0 1-2 1.94h-5a2 2 0 0 1-2-1.94V12a2 2 0 0 1 1.42-1.85v-.44a3.08 3.08 0 0 1 .91-2.18a3.17 3.17 0 0 1 4.36 0a3.059 3.059 0 0 1 .91 2.18v.44A2 2 0 0 1 16.53 12z" />
  <path fill="currentColor" d="M13.5 9.71v.35h-3v-.35a1.5 1.5 0 0 1 3 0" />
</svg>