<svg xmlns="http://www.w3.org/2000/svg" version="1.1" xmlns:xlink="http://www.w3.org/1999/xlink" xmlns:svgjs="http://svgjs.dev/svgjs" viewBox="0 0 2400 800"><defs><linearGradient x1="50%" y1="0%" x2="50%" y2="100%" id="sssurf-grad"><stop stop-color="hsla(157, 62%, 54%, 1.00)" stop-opacity="1" offset="0%"></stop><stop stop-color="hsl(208, 74%, 93%)" stop-opacity="1" offset="100%"></stop></linearGradient></defs><g fill="url(#sssurf-grad)" transform="matrix(1,0,0,1,10.8282470703125,219.17282485961914)"><path d="M-10,10C33.75,13.541666666666668,114.58333333333334,30.333333333333332,200,27C285.41666666666663,23.666666666666668,316.66666666666663,-3.9166666666666665,400,-6C483.33333333333337,-8.083333333333334,516.6666666666666,17.416666666666668,600,17C683.3333333333334,16.583333333333332,716.6666666666666,-13.625,800,-8C883.3333333333334,-2.375,916.6666666666666,42.541666666666664,1000,44C1083.3333333333333,45.458333333333336,1116.6666666666667,-2.875,1200,-1C1283.3333333333333,0.875,1316.6666666666667,54.666666666666664,1400,53C1483.3333333333333,51.333333333333336,1516.6666666666667,-7.75,1600,-9C1683.3333333333333,-10.25,1716.6666666666667,44.708333333333336,1800,47C1883.3333333333333,49.291666666666664,1916.6666666666667,4.708333333333333,2000,2C2083.3333333333335,-0.708333333333333,2118.75,32.333333333333336,2200,34C2281.25,35.666666666666664,2296.25,-66.25,2390,10C2483.75,86.25,3252.0833333333335,214.58333333333331,2650,400C2047.9166666666665,585.4166666666667,156.25,795.8333333333334,-500,900" transform="matrix(1,0,0,1,0,35)" opacity="0.05"></path><path d="M-10,10C33.75,13.541666666666668,114.58333333333334,30.333333333333332,200,27C285.41666666666663,23.666666666666668,316.66666666666663,-3.9166666666666665,400,-6C483.33333333333337,-8.083333333333334,516.6666666666666,17.416666666666668,600,17C683.3333333333334,16.583333333333332,716.6666666666666,-13.625,800,-8C883.3333333333334,-2.375,916.6666666666666,42.541666666666664,1000,44C1083.3333333333333,45.458333333333336,1116.6666666666667,-2.875,1200,-1C1283.3333333333333,0.875,1316.6666666666667,54.666666666666664,1400,53C1483.3333333333333,51.333333333333336,1516.6666666666667,-7.75,1600,-9C1683.3333333333333,-10.25,1716.6666666666667,44.708333333333336,1800,47C1883.3333333333333,49.291666666666664,1916.6666666666667,4.708333333333333,2000,2C2083.3333333333335,-0.708333333333333,2118.75,32.333333333333336,2200,34C2281.25,35.666666666666664,2296.25,-66.25,2390,10C2483.75,86.25,3252.0833333333335,214.58333333333331,2650,400C2047.9166666666665,585.4166666666667,156.25,795.8333333333334,-500,900" transform="matrix(1,0,0,1,0,70)" opacity="0.21"></path><path d="M-10,10C33.75,13.541666666666668,114.58333333333334,30.333333333333332,200,27C285.41666666666663,23.666666666666668,316.66666666666663,-3.9166666666666665,400,-6C483.33333333333337,-8.083333333333334,516.6666666666666,17.416666666666668,600,17C683.3333333333334,16.583333333333332,716.6666666666666,-13.625,800,-8C883.3333333333334,-2.375,916.6666666666666,42.541666666666664,1000,44C1083.3333333333333,45.458333333333336,1116.6666666666667,-2.875,1200,-1C1283.3333333333333,0.875,1316.6666666666667,54.666666666666664,1400,53C1483.3333333333333,51.333333333333336,1516.6666666666667,-7.75,1600,-9C1683.3333333333333,-10.25,1716.6666666666667,44.708333333333336,1800,47C1883.3333333333333,49.291666666666664,1916.6666666666667,4.708333333333333,2000,2C2083.3333333333335,-0.708333333333333,2118.75,32.333333333333336,2200,34C2281.25,35.666666666666664,2296.25,-66.25,2390,10C2483.75,86.25,3252.0833333333335,214.58333333333331,2650,400C2047.9166666666665,585.4166666666667,156.25,795.8333333333334,-500,900" transform="matrix(1,0,0,1,0,105)" opacity="0.37"></path><path d="M-10,10C33.75,13.541666666666668,114.58333333333334,30.333333333333332,200,27C285.41666666666663,23.666666666666668,316.66666666666663,-3.9166666666666665,400,-6C483.33333333333337,-8.083333333333334,516.6666666666666,17.416666666666668,600,17C683.3333333333334,16.583333333333332,716.6666666666666,-13.625,800,-8C883.3333333333334,-2.375,916.6666666666666,42.541666666666664,1000,44C1083.3333333333333,45.458333333333336,1116.6666666666667,-2.875,1200,-1C1283.3333333333333,0.875,1316.6666666666667,54.666666666666664,1400,53C1483.3333333333333,51.333333333333336,1516.6666666666667,-7.75,1600,-9C1683.3333333333333,-10.25,1716.6666666666667,44.708333333333336,1800,47C1883.3333333333333,49.291666666666664,1916.6666666666667,4.708333333333333,2000,2C2083.3333333333335,-0.708333333333333,2118.75,32.333333333333336,2200,34C2281.25,35.666666666666664,2296.25,-66.25,2390,10C2483.75,86.25,3252.0833333333335,214.58333333333331,2650,400C2047.9166666666665,585.4166666666667,156.25,795.8333333333334,-500,900" transform="matrix(1,0,0,1,0,140)" opacity="0.53"></path><path d="M-10,10C33.75,13.541666666666668,114.58333333333334,30.333333333333332,200,27C285.41666666666663,23.666666666666668,316.66666666666663,-3.9166666666666665,400,-6C483.33333333333337,-8.083333333333334,516.6666666666666,17.416666666666668,600,17C683.3333333333334,16.583333333333332,716.6666666666666,-13.625,800,-8C883.3333333333334,-2.375,916.6666666666666,42.541666666666664,1000,44C1083.3333333333333,45.458333333333336,1116.6666666666667,-2.875,1200,-1C1283.3333333333333,0.875,1316.6666666666667,54.666666666666664,1400,53C1483.3333333333333,51.333333333333336,1516.6666666666667,-7.75,1600,-9C1683.3333333333333,-10.25,1716.6666666666667,44.708333333333336,1800,47C1883.3333333333333,49.291666666666664,1916.6666666666667,4.708333333333333,2000,2C2083.3333333333335,-0.708333333333333,2118.75,32.333333333333336,2200,34C2281.25,35.666666666666664,2296.25,-66.25,2390,10C2483.75,86.25,3252.0833333333335,214.58333333333331,2650,400C2047.9166666666665,585.4166666666667,156.25,795.8333333333334,-500,900" transform="matrix(1,0,0,1,0,175)" opacity="0.68"></path><path d="M-10,10C33.75,13.541666666666668,114.58333333333334,30.333333333333332,200,27C285.41666666666663,23.666666666666668,316.66666666666663,-3.9166666666666665,400,-6C483.33333333333337,-8.083333333333334,516.6666666666666,17.416666666666668,600,17C683.3333333333334,16.583333333333332,716.6666666666666,-13.625,800,-8C883.3333333333334,-2.375,916.6666666666666,42.541666666666664,1000,44C1083.3333333333333,45.458333333333336,1116.6666666666667,-2.875,1200,-1C1283.3333333333333,0.875,1316.6666666666667,54.666666666666664,1400,53C1483.3333333333333,51.333333333333336,1516.6666666666667,-7.75,1600,-9C1683.3333333333333,-10.25,1716.6666666666667,44.708333333333336,1800,47C1883.3333333333333,49.291666666666664,1916.6666666666667,4.708333333333333,2000,2C2083.3333333333335,-0.708333333333333,2118.75,32.333333333333336,2200,34C2281.25,35.666666666666664,2296.25,-66.25,2390,10C2483.75,86.25,3252.0833333333335,214.58333333333331,2650,400C2047.9166666666665,585.4166666666667,156.25,795.8333333333334,-500,900" transform="matrix(1,0,0,1,0,210)" opacity="0.84"></path><path d="M-10,10C33.75,13.541666666666668,114.58333333333334,30.333333333333332,200,27C285.41666666666663,23.666666666666668,316.66666666666663,-3.9166666666666665,400,-6C483.33333333333337,-8.083333333333334,516.6666666666666,17.416666666666668,600,17C683.3333333333334,16.583333333333332,716.6666666666666,-13.625,800,-8C883.3333333333334,-2.375,916.6666666666666,42.541666666666664,1000,44C1083.3333333333333,45.458333333333336,1116.6666666666667,-2.875,1200,-1C1283.3333333333333,0.875,1316.6666666666667,54.666666666666664,1400,53C1483.3333333333333,51.333333333333336,1516.6666666666667,-7.75,1600,-9C1683.3333333333333,-10.25,1716.6666666666667,44.708333333333336,1800,47C1883.3333333333333,49.291666666666664,1916.6666666666667,4.708333333333333,2000,2C2083.3333333333335,-0.708333333333333,2118.75,32.333333333333336,2200,34C2281.25,35.666666666666664,2296.25,-66.25,2390,10C2483.75,86.25,3252.0833333333335,214.58333333333331,2650,400C2047.9166666666665,585.4166666666667,156.25,795.8333333333334,-500,900" transform="matrix(1,0,0,1,0,245)" opacity="1"></path></g></svg>